/* XPM */
static char * pcb_fpw@ohloh_xpm[] = {
"64 64 302 2",
"  	c #2E5633",
". 	c #2B5330",
"+ 	c #2A512D",
"@ 	c #274F2A",
"# 	c #274D29",
"$ 	c #2B4E2D",
"% 	c #384E3A",
"& 	c #355037",
"* 	c #2D4E30",
"= 	c #394E3B",
"- 	c #325033",
"; 	c #2F4E32",
"> 	c #2F5032",
", 	c #274F2B",
"' 	c #314E34",
") 	c #3A4E3B",
"! 	c #2E502F",
"~ 	c #284F2A",
"{ 	c #585D5B",
"] 	c #838B94",
"^ 	c #6D7379",
"/ 	c #3B523E",
"( 	c #616568",
"_ 	c #858C94",
": 	c #656A70",
"< 	c #355238",
"[ 	c #2E4E31",
"} 	c #696D72",
"| 	c #5F6366",
"1 	c #305133",
"2 	c #344E36",
"3 	c #72767D",
"4 	c #575D5D",
"5 	c #2B512F",
"6 	c #2F4E31",
"7 	c #777A81",
"8 	c #8D96A0",
"9 	c #88909A",
"0 	c #455248",
"a 	c #354D36",
"b 	c #7E848C",
"c 	c #8C96A0",
"d 	c #7E868F",
"e 	c #405243",
"f 	c #3A4E3C",
"g 	c #878F97",
"h 	c #757C84",
"i 	c #3B523C",
"j 	c #414E42",
"k 	c #8F98A2",
"l 	c #8C969F",
"m 	c #6E7279",
"n 	c #345336",
"o 	c #304E32",
"p 	c #787C83",
"q 	c #87909A",
"r 	c #455348",
"s 	c #374D37",
"t 	c #80878F",
"u 	c #7F878F",
"v 	c #3B4E3D",
"w 	c #899199",
"x 	c #767D85",
"y 	c #3B523D",
"z 	c #424E44",
"A 	c #909AA4",
"B 	c #88919A",
"C 	c #7F878E",
"D 	c #7F8790",
"E 	c #899099",
"F 	c #757C85",
"G 	c #787C82",
"H 	c #767C85",
"I 	c #9099A3",
"J 	c #2D4D2F",
"K 	c #707379",
"L 	c #848C95",
"M 	c #445347",
"N 	c #334E33",
"O 	c #787E85",
"P 	c #8C96A1",
"Q 	c #7A838B",
"R 	c #3F5341",
"S 	c #384D3A",
"T 	c #808890",
"U 	c #727880",
"V 	c #39523C",
"W 	c #284F2B",
"X 	c #435145",
"Y 	c #65676D",
"Z 	c #585C5E",
"` 	c #335134",
" .	c #284E2B",
"..	c #49534C",
"+.	c #66696F",
"@.	c #515958",
"#.	c #2E5131",
"$.	c #294E2D",
"%.	c #505654",
"&.	c #666970",
"*.	c #4E5751",
"=.	c #2B502E",
"-.	c #909AA3",
";.	c #2E5231",
">.	c #2B512E",
",.	c #294F2B",
"'.	c #2F5231",
").	c #2A512C",
"!.	c #274F29",
"~.	c #305332",
"{.	c #29502B",
"].	c #2F4E33",
"^.	c #515956",
"/.	c #606666",
"(.	c #616567",
"_.	c #606566",
":.	c #5C6262",
"<.	c #415242",
"[.	c #29502C",
"}.	c #404E41",
"|.	c #6C7178",
"1.	c #345237",
"2.	c #324E34",
"3.	c #686B6F",
"4.	c #8D97A2",
"5.	c #777F86",
"6.	c #465348",
"7.	c #334E34",
"8.	c #616569",
"9.	c #71777F",
"0.	c #505755",
"a.	c #2A502D",
"b.	c #696C70",
"c.	c #8C97A2",
"d.	c #8B959F",
"e.	c #787F87",
"f.	c #465349",
"g.	c #315133",
"h.	c #37523A",
"i.	c #696C71",
"j.	c #8B96A1",
"k.	c #89939D",
"l.	c #64686D",
"m.	c #5C6061",
"n.	c #5D6061",
"o.	c #5B5F62",
"p.	c #7D868D",
"q.	c #798088",
"r.	c #47534A",
"s.	c #294E2B",
"t.	c #626669",
"u.	c #5F6266",
"v.	c #365137",
"w.	c #294F2C",
"x.	c #46514C",
"y.	c #7D848C",
"z.	c #8B96A0",
"A.	c #48534A",
"B.	c #304E31",
"C.	c #777B82",
"D.	c #8B949E",
"E.	c #5E6164",
"F.	c #7C848C",
"G.	c #7A8189",
"H.	c #48544A",
"I.	c #28502B",
"J.	c #45514B",
"K.	c #7C838B",
"L.	c #696D73",
"M.	c #335335",
"N.	c #49524E",
"O.	c #8E98A2",
"P.	c #6E7278",
"Q.	c #4A534E",
"R.	c #8F99A3",
"S.	c #828A91",
"T.	c #6A6E75",
"U.	c #475349",
"V.	c #838A91",
"W.	c #7A828B",
"X.	c #49544C",
"Y.	c #838A92",
"Z.	c #79828A",
"`.	c #4A544B",
" +	c #2A502C",
".+	c #47544B",
"++	c #798189",
"@+	c #4A544A",
"#+	c #777C82",
"$+	c #354E38",
"%+	c #7D838A",
"&+	c #788089",
"*+	c #49534A",
"=+	c #7D868F",
"-+	c #889098",
";+	c #8C959F",
">+	c #899098",
",+	c #8A939D",
"'+	c #5C6062",
")+	c #335136",
"!+	c #2B4E2E",
"~+	c #555C59",
"{+	c #8D97A1",
"]+	c #606568",
"^+	c #89929C",
"/+	c #5C6162",
"(+	c #345136",
"_+	c #2B4E2F",
":+	c #8A929A",
"<+	c #676C73",
"[+	c #355337",
"}+	c #344D37",
"|+	c #62676C",
"1+	c #676B70",
"2+	c #606667",
"3+	c #656A6D",
"4+	c #8A939B",
"5+	c #6C7279",
"6+	c #274F2C",
"7+	c #344E37",
"8+	c #62676B",
"9+	c #8B959E",
"0+	c #6B7278",
"a+	c #405242",
"b+	c #334D36",
"c+	c #61666A",
"d+	c #8A949D",
"e+	c #6A7177",
"f+	c #3F5242",
"g+	c #334E35",
"h+	c #535957",
"i+	c #5B6062",
"j+	c #575D5E",
"k+	c #3D523F",
"l+	c #27502B",
"m+	c #375B39",
"n+	c #28502C",
"o+	c #345A37",
"p+	c #879B88",
"q+	c #406242",
"r+	c #93A594",
"s+	c #68816B",
"t+	c #375C3A",
"u+	c #28502A",
"v+	c #2B522E",
"w+	c #2C522E",
"x+	c #517154",
"y+	c #B7C0B8",
"z+	c #9BAB9D",
"A+	c #99A99B",
"B+	c #9DAB9E",
"C+	c #B0BAB1",
"D+	c #A4B0A4",
"E+	c #7E927E",
"F+	c #819682",
"G+	c #829784",
"H+	c #68826A",
"I+	c #BEC6C0",
"J+	c #869A87",
"K+	c #B1BAB1",
"L+	c #94A395",
"M+	c #A7B4A7",
"N+	c #BAC3BA",
"O+	c #9CAB9D",
"P+	c #557458",
"Q+	c #98A899",
"R+	c #B0BBB1",
"S+	c #A4AFA4",
"T+	c #788F7A",
"U+	c #B1BBB1",
"V+	c #798F79",
"W+	c #95A496",
"X+	c #426444",
"Y+	c #426345",
"Z+	c #3A5E3D",
"`+	c #9FAC9F",
" @	c #658067",
".@	c #8EA08E",
"+@	c #ABB6AB",
"@@	c #9BAA9C",
"#@	c #CFD1D1",
"$@	c #768B77",
"%@	c #547357",
"&@	c #92A193",
"*@	c #456546",
"=@	c #375B3A",
"-@	c #5A765D",
";@	c #456647",
">@	c #5E7960",
",@	c #325734",
"'@	c #466648",
")@	c #647F67",
"!@	c #879987",
"~@	c #3F6242",
"{@	c #3C5F3E",
"]@	c #355937",
"^@	c #365A38",
"/@	c #2E5431",
"(@	c #335835",
"_@	c #2A522D",
":@	c #264E29",
"<@	c #264C29",
"  . . . . . . . . . . . . . . . . . . . . . . . . . . . . . . . . . . . . . . . . . . . . . . . . . . . . . . . . . . . . . . + ",
". @ @ @ @ @ @ @ @ @ @ @ @ @ @ @ @ @ @ @ @ @ @ @ @ @ @ @ @ @ @ @ @ @ @ @ @ @ @ @ @ @ @ @ @ @ @ @ @ @ @ @ @ @ @ @ @ @ @ @ @ @ @ # ",
". @ @ @ @ @ @ @ @ @ @ @ @ @ @ @ @ @ @ @ @ @ @ @ @ @ @ @ @ @ @ @ @ @ @ @ @ @ @ @ @ @ @ @ @ @ @ @ @ @ @ @ @ @ @ @ @ @ @ @ @ @ @ # ",
". @ @ @ @ @ @ @ @ @ @ @ @ @ @ @ @ @ @ @ @ @ @ @ @ @ @ @ @ @ @ @ @ @ @ @ @ @ @ @ @ @ @ @ @ @ @ @ @ @ @ @ @ @ @ @ @ @ @ @ @ @ @ # ",
". @ @ @ @ @ @ @ @ @ @ @ @ @ @ @ @ @ @ @ @ @ @ $ % & @ @ * = - @ @ ; = > , @ ' ) ! @ @ @ @ @ @ @ @ @ @ @ @ @ @ @ @ @ @ @ @ @ @ # ",
". @ @ @ @ @ @ @ @ @ @ @ @ @ @ @ @ @ @ @ @ @ ~ { ] ^ / $ ( _ : < [ } _ | 1 2 3 ] 4 5 @ @ @ @ @ @ @ @ @ @ @ @ @ @ @ @ @ @ @ @ @ # ",
". @ @ @ @ @ @ @ @ @ @ @ @ @ @ @ @ @ @ @ @ @ 6 7 8 9 0 a b c d e f g c h i j k l m n @ @ @ @ @ @ @ @ @ @ @ @ @ @ @ @ @ @ @ @ @ # ",
". @ @ @ @ @ @ @ @ @ @ @ @ @ @ @ @ @ @ @ @ @ o p l q r s t c u e v w c x y z A c m n @ @ @ @ @ @ @ @ @ @ @ @ @ @ @ @ @ @ @ @ @ # ",
". @ @ @ @ @ @ @ @ @ @ @ @ @ @ @ @ @ @ @ @ @ o p l B r s C c D e v E c F / z A c m n @ @ @ @ @ @ @ @ @ @ @ @ @ @ @ @ @ @ @ @ @ # ",
". @ @ @ @ @ @ @ @ @ @ @ @ @ @ @ @ @ @ @ @ @ o G 8 B r s u c u e v E c F / z A c m n @ @ @ @ @ @ @ @ @ @ @ @ @ @ @ @ @ @ @ @ @ # ",
". @ @ @ @ @ @ @ @ @ @ @ @ @ @ @ @ @ @ @ @ @ o G 8 B r s C c u e v E c H / z I c m n @ @ @ @ @ @ @ @ @ @ @ @ @ @ @ @ @ @ @ @ @ # ",
". @ @ @ @ @ @ @ @ @ @ @ @ @ @ @ @ @ @ @ @ @ J K c L M N O P Q R S T c U V z I c m n @ @ @ @ @ @ @ @ @ @ @ @ @ @ @ @ @ @ @ @ @ # ",
". @ @ @ @ @ @ @ @ @ @ @ @ @ @ @ @ @ @ @ @ @ W X Y Z `  ...+.@.#.$.%.&.*.=.z -.c m n @ @ @ @ @ @ @ @ @ @ @ @ @ @ @ @ @ @ @ @ @ # ",
". @ @ @ @ @ @ @ @ @ @ @ @ @ @ @ @ @ @ @ @ @ @ , ;.>., , ,.'.).!.@ ,.~.{.@ z I c m n @ @ @ @ @ @ @ @ @ @ @ @ @ @ @ @ @ @ @ @ @ # ",
". @ @ @ @ @ @ @ @ @ @ @ @ @ @ @ @ @ @ @ @ @ @ @ @ !.].^./.(._._._._.:.<.[.}.8 c |.1.@ @ @ @ @ @ @ @ @ @ @ @ @ @ @ @ @ @ @ @ @ # ",
". @ @ @ @ @ @ @ @ @ @ @ @ @ @ @ @ @ @ @ @ @ @ @ !.2.3.4.c c c c c c 8 5.6.7.8.9.0.a.@ @ @ @ @ @ @ @ @ @ @ @ @ @ @ @ @ @ @ @ @ # ",
". @ @ @ @ @ @ @ @ @ @ @ @ @ @ @ @ @ @ @ @ @ @ !.2.b.c.c d.c c l c c c P e.f.g.h.>.@ @ @ @ @ @ @ @ @ @ @ @ @ @ @ @ @ @ @ @ @ @ # ",
". @ @ @ @ @ @ @ @ @ @ @ @ @ @ @ @ @ @ @ @ @ @ 2.i.j.c k.l.m.n.m.m.o.p.c c q.r.[.@ @ @ @ @ @ @ @ @ @ @ @ @ @ @ @ @ @ @ @ @ @ @ # ",
". @ @ @ @ @ @ @ @ @ @ @ @ @ @ @ @ @ @ @ @ @ s.t.c.c k.u.v.~ ~ @ @ w.x.y.z.c q.A.[.@ @ @ @ @ @ @ @ @ @ @ @ @ @ @ @ @ @ @ @ @ @ # ",
". @ @ @ @ @ @ @ @ @ @ @ @ @ @ @ @ @ @ @ @ @ B.C.c D.E.v.@ @ @ @ @ @ ,.x.F.c c G.H.I.@ @ @ @ @ @ @ @ @ @ @ @ @ @ @ @ @ @ @ @ @ # ",
". @ @ @ @ @ @ @ @ @ @ @ @ @ @ @ @ @ @ @ @ @ o G l q r !.@ @ @ @ @ @ @ ,.J.K.c c L.M.@ @ @ @ @ @ @ @ @ @ @ @ @ @ @ @ @ @ @ @ @ # ",
". @ @ @ @ @ @ @ @ @ @ @ @ @ @ @ @ @ @ @ @ @ o p l B r !.@ @ @ @ @ @ @ @ W N.O.c P.n @ @ @ @ @ @ @ @ @ @ @ @ @ @ @ @ @ @ @ @ @ # ",
". @ @ @ @ @ @ @ @ @ @ @ @ @ @ @ @ @ @ @ @ @ o G l 9 r !.@ @ @ @ @ @ @ @ , z A c m n @ @ @ @ @ @ @ @ @ @ @ @ @ @ @ @ @ @ @ @ @ # ",
". @ @ @ @ @ @ @ @ @ @ @ @ @ @ @ @ @ @ @ @ @ o G l 9 r !.@ @ @ @ @ @ @ @ , z A c m n @ @ @ @ @ @ @ @ @ @ @ @ @ @ @ @ @ @ @ @ @ # ",
". @ @ @ @ @ @ @ @ @ @ @ @ @ @ @ @ @ @ @ @ @ o G l q r !.@ @ @ @ @ @ @ @ , z A c m n @ @ @ @ @ @ @ @ @ @ @ @ @ @ @ @ @ @ @ @ @ # ",
". @ @ @ @ @ @ @ @ @ @ @ @ @ @ @ @ @ @ @ @ @ o p c B r !.@ @ @ @ @ @ @ @ , z A c m n @ @ @ @ @ @ @ @ @ @ @ @ @ @ @ @ @ @ @ @ @ # ",
". @ @ @ @ @ @ @ @ @ @ @ @ @ @ @ @ @ @ @ @ @ o G c 9 r !.@ @ @ @ @ @ @ @ W Q.R.c m n @ @ @ @ @ @ @ @ @ @ @ @ @ @ @ @ @ @ @ @ @ # ",
". @ @ @ @ @ @ @ @ @ @ @ @ @ @ @ @ @ @ @ @ @ o G c q r !.@ @ @ @ @ @ @ W f.S.c c T.M.@ @ @ @ @ @ @ @ @ @ @ @ @ @ @ @ @ @ @ @ @ # ",
". @ @ @ @ @ @ @ @ @ @ @ @ @ @ @ @ @ @ @ @ @ o p 8 9 r !.@ @ @ @ @ @ W U.V.c c W.X.[.@ @ @ @ @ @ @ @ @ @ @ @ @ @ @ @ @ @ @ @ @ # ",
". @ @ @ @ @ @ @ @ @ @ @ @ @ @ @ @ @ @ @ @ @ o G l q r !.@ @ @ @ @ W r.Y.c c Z.`. +@ @ @ @ @ @ @ @ @ @ @ @ @ @ @ @ @ @ @ @ @ @ # ",
". @ @ @ @ @ @ @ @ @ @ @ @ @ @ @ @ @ @ @ @ @ o p c B r !.@ @ @ @ ~ .+Y.c c ++@+ +@ @ @ @ @ @ @ @ @ @ @ @ @ @ @ @ @ @ @ @ @ @ @ # ",
". @ @ @ @ @ @ @ @ @ @ @ @ @ @ @ @ @ @ @ @ @ o #+l B r !.@ @ @ , $+%+c c &+*+ +@ @ @ @ @ @ @ @ @ @ @ @ @ @ @ @ @ @ @ @ @ @ @ @ # ",
". @ @ @ @ @ @ @ @ @ @ @ @ @ @ @ @ @ @ @ @ @ o G 8 B r !.@ @ @ @ v w c =+*+[.@ @ @ @ @ @ @ @ @ @ @ @ @ @ @ @ @ @ @ @ @ @ @ @ @ # ",
". @ @ @ @ @ @ @ @ @ @ @ @ @ @ @ @ @ @ @ @ @ o #+l B r !.@ @ @ @ v w c H y @ @ @ @ @ @ @ @ @ @ @ @ @ @ @ @ @ @ @ @ @ @ @ @ @ @ # ",
". @ @ @ @ @ @ @ @ @ @ @ @ @ @ @ @ @ @ @ @ @ o G l B r !.@ @ @ @ v w c H y @ @ @ @ @ @ @ @ @ @ @ @ @ @ @ @ @ @ @ @ @ @ @ @ @ @ # ",
". @ @ @ @ @ @ @ @ @ @ @ @ @ @ @ @ @ @ @ @ @ o G l 9 r !.@ @ @ @ v -+c F y @ @ @ @ @ @ @ @ @ @ @ @ @ @ @ @ @ @ @ @ @ @ @ @ @ @ # ",
". @ @ @ @ @ @ @ @ @ @ @ @ @ @ @ @ @ @ @ @ @ o G ;+9 r !.@ @ @ @ v E c H y @ @ @ @ @ @ @ @ @ @ @ @ @ @ @ @ @ @ @ @ @ @ @ @ @ @ # ",
". @ @ @ @ @ @ @ @ @ @ @ @ @ @ @ @ @ @ @ @ @ o C.l B r !.@ @ @ @ v >+c F y @ @ @ @ @ @ @ @ @ @ @ @ @ @ @ @ @ @ @ @ @ @ @ @ @ @ # ",
". @ @ @ @ @ @ @ @ @ @ @ @ @ @ @ @ @ @ @ @ @ o p l 9 r !.@ @ @ @ v E c x y @ @ @ @ @ @ @ @ @ @ @ @ @ @ @ @ @ @ @ @ @ @ @ @ @ @ # ",
". @ @ @ @ @ @ @ @ @ @ @ @ @ @ @ @ @ @ @ @ @ o G l q r !.@ @ @ @ v E c x y @ @ @ @ @ @ @ @ @ @ @ @ @ @ @ @ @ @ @ @ @ @ @ @ @ @ # ",
". @ @ @ @ @ @ @ @ @ @ @ @ @ @ @ @ @ @ @ @ @ o G l q r !.@ @ @ @ v E c x y @ @ @ @ @ @ @ @ @ @ @ @ @ @ @ @ @ @ @ @ @ @ @ @ @ @ # ",
". @ @ @ @ @ @ @ @ @ @ @ @ @ @ @ @ @ @ @ @ @ o G l B r !.@ @ @ @ v w c h y @ @ @ @ @ @ @ @ @ @ @ @ @ @ @ @ @ @ @ @ @ @ @ @ @ @ # ",
". @ @ @ @ @ @ @ @ @ @ @ @ @ @ @ @ @ @ @ @ @ o p l B r !.@ @ @ @ v -+c F y @ @ @ @ @ @ @ @ @ @ @ @ @ @ @ @ @ @ @ @ @ @ @ @ @ @ # ",
". @ @ @ @ @ @ @ @ @ @ @ @ @ @ @ @ @ @ @ @ @ o G c B r !.@ @ @ @ v E c H y @ @ @ @ @ @ @ @ @ @ @ @ @ @ @ @ @ @ @ @ @ @ @ @ @ @ # ",
". @ @ @ @ @ @ @ @ @ @ @ @ @ @ @ @ @ @ @ @ @ o C.8 ,+'+)+@ @ @ !+~+d.{+F y @ @ @ @ @ @ @ @ @ @ @ @ @ @ @ @ @ @ @ @ @ @ @ @ @ @ # ",
". @ @ @ @ @ @ @ @ @ @ @ @ @ @ @ @ @ @ @ @ @ $.]+d.c ^+/+(+, _+~+:+c c <+[+@ @ @ @ @ @ @ @ @ @ @ @ @ @ @ @ @ @ @ @ @ @ @ @ @ @ # ",
". @ @ @ @ @ @ @ @ @ @ @ @ @ @ @ @ @ @ @ @ @ @ }+|+D.c ^+1+2+3+4+c c 5+e 6+@ @ @ @ @ @ @ @ @ @ @ @ @ @ @ @ @ @ @ @ @ @ @ @ @ @ # ",
". @ @ @ @ @ @ @ @ @ @ @ @ @ @ @ @ @ @ @ @ @ @ @ 7+8+9+c c c z.c c 0+a+6+@ @ @ @ @ @ @ @ @ @ @ @ @ @ @ @ @ @ @ @ @ @ @ @ @ @ @ # ",
". @ @ @ @ @ @ @ @ @ @ @ @ @ @ @ @ @ @ @ @ @ @ @ @ b+c+d+c c c ;+e+f+6+@ @ @ @ @ @ @ @ @ @ @ @ @ @ @ @ @ @ @ @ @ @ @ @ @ @ @ @ # ",
". @ @ @ @ @ @ @ @ @ @ @ @ @ @ @ @ @ @ @ @ @ @ @ @ @ g+h+i+i+i+j+k+6+@ @ @ @ @ @ @ @ @ @ @ @ @ @ @ @ @ @ @ @ @ @ @ @ @ @ @ @ @ # ",
". @ @ @ @ @ @ @ @ @ @ @ @ @ @ @ @ @ @ @ @ @ @ @ @ @ @ @ @ @ @ @ @ @ @ @ @ @ @ @ @ @ @ @ @ @ @ @ @ @ @ @ @ @ @ @ @ @ @ @ @ @ @ # ",
". @ @ @ @ @ @ @ @ @ @ @ @ @ @ @ @ @ @ @ @ @ @ @ @ @ @ @ @ @ @ @ @ @ @ @ @ @ @ @ @ @ @ @ @ @ @ @ @ @ @ @ @ @ @ @ @ @ @ @ @ @ @ # ",
". @ @ @ @ @ @ @ @ @ @ @ @ @ @ @ @ @ @ @ @ @ @ @ @ @ @ @ !.@ @ @ @ @ l+@ @ @ @ @ @ @ @ @ @ @ @ @ @ @ @ @ @ @ @ @ @ @ @ @ @ @ @ # ",
". @ @ @ @ @ @ @ @ @ @ @ @ @ @ @ @ @ @ @ @ @ W m++ n+o+p+q+!.@ @ ~ r+s+t+u+v+v+w+@ @ @ @ @ @ @ @ @ @ @ @ @ @ @ @ @ @ @ @ @ @ @ # ",
". @ @ @ @ @ @ @ @ @ @ @ @ @ @ @ @ @ @ @ @ @ x+y+z+A+B+C+D+E+F+G+H+I+J+K+L+M+N+O+@ @ @ @ @ @ @ @ @ @ @ @ @ @ @ @ @ @ @ @ @ @ @ # ",
". @ @ @ @ @ @ @ @ @ @ @ @ @ @ @ @ @ @ @ @ @ P+Q+R+S+T+U+V+W+X+Y+Z+`+ @.@+@@@#@$@@ @ @ @ @ @ @ @ @ @ @ @ @ @ @ @ @ @ @ @ @ @ @ # ",
". @ @ @ @ @ @ @ @ @ @ @ @ @ @ @ @ @ @ @ @ @ %@&@*@=@-@;@>@,@@ @ @ '@)@!@~@{@'@]@@ @ @ @ @ @ @ @ @ @ @ @ @ @ @ @ @ @ @ @ @ @ @ # ",
". @ @ @ @ @ @ @ @ @ @ @ @ @ @ @ @ @ @ @ @ @ v+^@@ @ @ @ @ @ @ @ @ @ /@(@@ @ @ @ @ @ @ @ @ @ @ @ @ @ @ @ @ @ @ @ @ @ @ @ @ @ @ # ",
". @ @ @ @ @ @ @ @ @ @ @ @ @ @ @ @ @ @ @ @ @ @ @ @ @ @ @ @ @ @ @ @ @ @ @ @ @ @ @ @ @ @ @ @ @ @ @ @ @ @ @ @ @ @ @ @ @ @ @ @ @ @ # ",
". @ @ @ @ @ @ @ @ @ @ @ @ @ @ @ @ @ @ @ @ @ @ @ @ @ @ @ @ @ @ @ @ @ @ @ @ @ @ @ @ @ @ @ @ @ @ @ @ @ @ @ @ @ @ @ @ @ @ @ @ @ @ # ",
". @ @ @ @ @ @ @ @ @ @ @ @ @ @ @ @ @ @ @ @ @ @ @ @ @ @ @ @ @ @ @ @ @ @ @ @ @ @ @ @ @ @ @ @ @ @ @ @ @ @ @ @ @ @ @ @ @ @ @ @ @ @ # ",
". @ @ @ @ @ @ @ @ @ @ @ @ @ @ @ @ @ @ @ @ @ @ @ @ @ @ @ @ @ @ @ @ @ @ @ @ @ @ @ @ @ @ @ @ @ @ @ @ @ @ @ @ @ @ @ @ @ @ @ @ @ @ # ",
". @ @ @ @ @ @ @ @ @ @ @ @ @ @ @ @ @ @ @ @ @ @ @ @ @ @ @ @ @ @ @ @ @ @ @ @ @ @ @ @ @ @ @ @ @ @ @ @ @ @ @ @ @ @ @ @ @ @ @ @ @ @ # ",
"_@:@:@:@:@:@:@:@:@:@:@:@:@:@:@:@:@:@:@:@:@:@:@:@:@:@:@:@:@:@:@:@:@:@:@:@:@:@:@:@:@:@:@:@:@:@:@:@:@:@:@:@:@:@:@:@:@:@:@:@:@:@:@<@"};
