/* XPM */
static char * pcb_fpw_24x24_xpm[] = {
"24 24 116 2",
"  	c None",
". 	c #2A522E",
"+ 	c #28502C",
"@ 	c #274F2A",
"# 	c #2D5130",
"$ 	c #3A583E",
"% 	c #35553A",
"& 	c #37563B",
"* 	c #36563B",
"= 	c #3A583F",
"- 	c #2D5131",
"; 	c #274E29",
"> 	c #415B46",
", 	c #667572",
"' 	c #5B6B64",
") 	c #5F6E69",
"! 	c #5E6E68",
"~ 	c #687673",
"{ 	c #405A45",
"] 	c #284F2B",
"^ 	c #284F2A",
"/ 	c #485F4D",
"( 	c #717D7E",
"_ 	c #667370",
": 	c #6A7676",
"< 	c #697675",
"[ 	c #667271",
"} 	c #748082",
"| 	c #465D4B",
"1 	c #39563D",
"2 	c #576960",
"3 	c #516458",
"4 	c #55665E",
"5 	c #54655C",
"6 	c #54665C",
"7 	c #727F80",
"8 	c #465E4B",
"9 	c #3A563E",
"0 	c #586A61",
"a 	c #62716C",
"b 	c #606F6A",
"c 	c #4F6256",
"d 	c #687574",
"e 	c #405945",
"f 	c #29512C",
"g 	c #315334",
"h 	c #747F82",
"i 	c #6E7B7B",
"j 	c #5D6F67",
"k 	c #647470",
"l 	c #737F82",
"m 	c #56685E",
"n 	c #294F2C",
"o 	c #445C49",
"p 	c #768285",
"q 	c #405C46",
"r 	c #2C512F",
"s 	c #315335",
"t 	c #54685D",
"u 	c #768185",
"v 	c #48604E",
"w 	c #707E7D",
"x 	c #345538",
"y 	c #37563C",
"z 	c #738082",
"A 	c #455D4B",
"B 	c #28502B",
"C 	c #738182",
"D 	c #48604D",
"E 	c #2E5232",
"F 	c #546A5D",
"G 	c #778285",
"H 	c #707D7D",
"I 	c #4F6657",
"J 	c #737F81",
"K 	c #55685D",
"L 	c #6A7776",
"M 	c #5B6E65",
"N 	c #2A4F2D",
"O 	c #6A7675",
"P 	c #586C62",
"Q 	c #2A4F2C",
"R 	c #485F4E",
"S 	c #445D49",
"T 	c #768284",
"U 	c #737D80",
"V 	c #566A5F",
"W 	c #727D80",
"X 	c #677773",
"Y 	c #758084",
"Z 	c #425D48",
"` 	c #335538",
" .	c #53685B",
"..	c #5C6E66",
"+.	c #35543A",
"@.	c #2D5430",
"#.	c #345937",
"$.	c #395C3C",
"%.	c #335737",
"&.	c #385C3B",
"*.	c #355A38",
"=.	c #325835",
"-.	c #507053",
";.	c #7B917C",
">.	c #758C77",
",.	c #567458",
"'.	c #69836B",
").	c #7A917C",
"!.	c #79907B",
"~.	c #3D603F",
"{.	c #335836",
"].	c #2B522D",
"^.	c #355937",
"/.	c #3A5F3D",
"(.	c #2F5532",
"_.	c #264E29",
". + + + + + + + + + + + + + + + + + + + + + + + ",
"+ @ @ @ @ @ @ @ # $ % & * % = - @ @ @ @ @ @ @ ; ",
"+ @ @ @ @ @ @ @ > , ' ) ! ' ~ { ] @ @ @ @ @ @ ; ",
"+ @ @ @ @ @ @ ^ / ( _ : < [ } | ] @ @ @ @ @ @ ; ",
"+ @ @ @ @ @ @ @ 1 2 3 4 5 6 7 8 ] @ @ @ @ @ @ ; ",
"+ @ @ @ @ @ @ @ ] 9 0 a b c d e ] @ @ @ @ @ @ ; ",
"f @ @ @ @ @ @ @ g h i j k l m n @ @ @ @ @ @ @ ; ",
"+ @ @ @ @ @ @ ^ o p q r s t u 1 ^ @ @ @ @ @ @ ; ",
"+ @ @ @ @ @ @ ^ v w x @ @ y z A B @ @ @ @ @ @ ; ",
"f @ @ @ @ @ @ ] v w x @ @ & C A ] @ @ @ @ @ @ ; ",
"+ @ @ @ @ @ @ ^ D w x @ E F G 1 ^ @ @ @ @ @ @ ; ",
"+ @ @ @ @ @ @ ^ D H x @ I J K n @ @ @ @ @ @ @ ; ",
"+ @ @ @ @ @ @ ^ v w x @ L M N @ @ @ @ @ @ @ @ ; ",
"+ @ @ @ @ @ @ ] v w x @ O P Q @ @ @ @ @ @ @ @ ; ",
"+ @ @ @ @ @ @ ^ v w x @ O P Q @ @ @ @ @ @ @ @ ; ",
"+ @ @ @ @ @ @ ^ R w x @ < P n @ @ @ @ @ @ @ @ ; ",
"+ @ @ @ @ @ @ ^ S T q s U V n @ @ @ @ @ @ @ @ ; ",
"+ @ @ @ @ @ @ @ s W i X Y Z ] @ @ @ @ @ @ @ @ ; ",
"+ @ @ @ @ @ @ @ @ `  ...+.] @ @ @ @ @ @ @ @ @ ; ",
"+ @ @ @ @ @ @ @ @.#.$.%.&.*.=.@ @ @ @ @ @ @ @ ; ",
"+ @ @ @ @ @ @ f -.;.>.,.'.).!.@ @ @ @ @ @ @ @ ; ",
"+ @ @ @ @ @ @ + ~.=.{.].^./.(.@ @ @ @ @ @ @ @ ; ",
"f @ @ @ @ @ @ @ @ @ @ @ @ @ @ @ @ @ @ @ @ @ @ ; ",
"+ _._._._._._._._._._._._._._._._._._._._._._._."};
