/* XPM */
static char * pcb_fpw_32x32_xpm[] = {
"32 32 145 2",
"  	c None",
". 	c #2B532F",
"+ 	c #29512D",
"@ 	c #29502C",
"# 	c #274F2A",
"$ 	c #274E29",
"% 	c #37553B",
"& 	c #55675C",
"* 	c #345338",
"= 	c #53645B",
"- 	c #435B48",
"; 	c #415B47",
"> 	c #355339",
", 	c #38553C",
"' 	c #274F2B",
") 	c #284F2B",
"! 	c #4F6255",
"~ 	c #7C868C",
"{ 	c #46594B",
"] 	c #808790",
"^ 	c #5F6D69",
"/ 	c #5F6E68",
"( 	c #7D858D",
"_ 	c #495C4D",
": 	c #7E888E",
"< 	c #4D6053",
"[ 	c #294F2B",
"} 	c #536559",
"| 	c #7F898F",
"1 	c #495A4D",
"2 	c #838C95",
"3 	c #626F6C",
"4 	c #62706C",
"5 	c #808892",
"6 	c #4C5D51",
"7 	c #818B92",
"8 	c #506256",
"9 	c #7E888F",
"0 	c #485A4C",
"a 	c #818A92",
"b 	c #616E6B",
"c 	c #606E6A",
"d 	c #7E868F",
"e 	c #4B5D50",
"f 	c #2E4F31",
"g 	c #425846",
"h 	c #325135",
"i 	c #48594D",
"j 	c #3F5744",
"k 	c #3E5642",
"l 	c #47584B",
"m 	c #425B48",
"n 	c #2F5132",
"o 	c #54675D",
"p 	c #6D7A7A",
"q 	c #6D7A79",
"r 	c #62716D",
"s 	c #435847",
"t 	c #717A7E",
"u 	c #455A4B",
"v 	c #2E5130",
"w 	c #6A7675",
"x 	c #858E97",
"y 	c #6E797A",
"z 	c #6B7977",
"A 	c #6E7A7B",
"B 	c #808A91",
"C 	c #6D787A",
"D 	c #425946",
"E 	c #485D4D",
"F 	c #677272",
"G 	c #335336",
"H 	c #305233",
"I 	c #335337",
"J 	c #506258",
"K 	c #848D96",
"L 	c #6D797A",
"M 	c #305033",
"N 	c #415B46",
"O 	c #53645C",
"P 	c #858F98",
"Q 	c #4D6054",
"R 	c #869098",
"S 	c #4D6154",
"T 	c #2D5130",
"U 	c #506457",
"V 	c #868F97",
"W 	c #526559",
"X 	c #4B6152",
"Y 	c #7E898E",
"Z 	c #6E797B",
"` 	c #3E5842",
" .	c #62716C",
"..	c #828B94",
"+.	c #355137",
"@.	c #808891",
"#.	c #315033",
"$.	c #848C95",
"%.	c #657270",
"&.	c #3D5942",
"*.	c #7D858C",
"=.	c #788188",
"-.	c #2E5031",
";.	c #2E5131",
">.	c #687474",
",.	c #6F7B7C",
"'.	c #788387",
").	c #506358",
"!.	c #2E5132",
"~.	c #53665B",
"{.	c #6B7978",
"].	c #6A7777",
"^.	c #3F5845",
"/.	c #294F2C",
"(.	c #2B502E",
"_.	c #2F5233",
":.	c #28502B",
"<.	c #385C3B",
"[.	c #3C5F3F",
"}.	c #4E6D50",
"|.	c #3D603F",
"1.	c #365B39",
"2.	c #47684A",
"3.	c #4C6C4E",
"4.	c #3C5F3E",
"5.	c #3E6140",
"6.	c #2D5430",
"7.	c #69836B",
"8.	c #8C9F8D",
"9.	c #94A596",
"0.	c #768C77",
"a.	c #59765B",
"b.	c #6E876F",
"c.	c #879B88",
"d.	c #92A393",
"e.	c #8C9E8D",
"f.	c #2B522E",
"g.	c #355A38",
"h.	c #375B39",
"i.	c #325735",
"j.	c #4E6E50",
"k.	c #335936",
"l.	c #325734",
"m.	c #28502C",
"n.	c #264E29",
". + + + + + + + + + + + + + + + + + + + + + + + + + + + + + + @ ",
"+ # # # # # # # # # # # # # # # # # # # # # # # # # # # # # # $ ",
"+ # # # # # # # # # # % & * = - ; = > & , ' # # # # # # # # # $ ",
"+ # # # # # # # # # ) ! ~ { ] ^ / ( _ : < @ # # # # # # # # # $ ",
"+ # # # # # # # # # [ } | 1 2 3 4 5 6 7 ! @ # # # # # # # # # $ ",
"+ # # # # # # # # # ) 8 9 0 a b c d e 7 ! @ # # # # # # # # # $ ",
"+ # # # # # # # # # # f g h i j k l m 7 ! @ # # # # # # # # # $ ",
"+ # # # # # # # # # # # n o p q q r s t u ) # # # # # # # # # $ ",
"+ # # # # # # # # # # v w x y z A B C D ) # # # # # # # # # # $ ",
"+ # # # # # # # # # ) E x F G H I J K L M # # # # # # # # # # $ ",
"+ # # # # # # # # # [ } | N # # # # O P Q @ # # # # # # # # # $ ",
"+ # # # # # # # # # [ } | N # # # # m 7 ! @ # # # # # # # # # $ ",
"+ # # # # # # # # # [ } | N # # # # m 7 ! @ # # # # # # # # # $ ",
"+ # # # # # # # # # [ } | N # # # # & R S @ # # # # # # # # # $ ",
"+ # # # # # # # # # [ } | N # # T U V A M # # # # # # # # # # $ ",
"+ # # # # # # # # # [ W | N # # X Y Z ` # # # # # # # # # # # $ ",
"+ # # # # # # # # # [ } | N # #  ...+.# # # # # # # # # # # # $ ",
"+ # # # # # # # # # [ } | N # # 4 @.#.# # # # # # # # # # # # $ ",
"+ # # # # # # # # # ) W | N # # 4 @.#.# # # # # # # # # # # # $ ",
"+ # # # # # # # # # [ } | N # # 4 @.#.# # # # # # # # # # # # $ ",
"+ # # # # # # # # # [ } | N # # 4 @.#.# # # # # # # # # # # # $ ",
"+ # # # # # # # # # [ } | N # # 4 @.#.# # # # # # # # # # # # $ ",
"+ # # # # # # # # # ) E $.%.I &.*.=.-.# # # # # # # # # # # # $ ",
"+ # # # # # # # # # # ;.>.2 ,.'.9 ).) # # # # # # # # # # # # $ ",
"+ # # # # # # # # # # # !.~.{.].^./.# # # # # # # # # # # # # $ ",
"+ # # # # # # # # # # # # (.H _./.# # # # # # # # # # # # # # $ ",
"+ # # # # # # # # # :.<.[.}.|.1.2.3.4.5.# # # # # # # # # # # $ ",
"+ # # # # # # # # # 6.7.8.9.0.a.b.c.d.e.# # # # # # # # # # # $ ",
"+ # # # # # # # # # f.3.g.<.h.:.i.j.k.l.# # # # # # # # # # # $ ",
"+ # # # # # # # # # # :.# # # # # :.# # # # # # # # # # # # # $ ",
"+ # # # # # # # # # # # # # # # # # # # # # # # # # # # # # # $ ",
"m.n.n.n.n.n.n.n.n.n.n.n.n.n.n.n.n.n.n.n.n.n.n.n.n.n.n.n.n.n.n.n."};
