/* XPM */
static char * pcb_fpw_48x48_xpm[] = {
"48 48 252 2",
"  	c None",
". 	c #2C5431",
"+ 	c #2A522E",
"@ 	c #29502D",
"# 	c #274F2A",
"$ 	c #274E29",
"% 	c #325135",
"& 	c #495C4E",
"* 	c #37543B",
"= 	c #294F2C",
"- 	c #3E5643",
"; 	c #455A4A",
"> 	c #305133",
", 	c #2E5031",
"' 	c #3F5744",
") 	c #294F2D",
"! 	c #36533A",
"~ 	c #345237",
"{ 	c #274F2B",
"] 	c #58645E",
"^ 	c #858D96",
"/ 	c #5D6A66",
"( 	c #344F36",
"_ 	c #767C82",
": 	c #7D848D",
"< 	c #485B4E",
"[ 	c #80888F",
"} 	c #72787E",
"| 	c #375139",
"1 	c #868E97",
"2 	c #56625D",
"3 	c #2B502E",
"4 	c #2B4E2E",
"5 	c #66706E",
"6 	c #8B949E",
"7 	c #667171",
"8 	c #3A4E3B",
"9 	c #838A93",
"0 	c #858E98",
"a 	c #505F56",
"b 	c #4E5F54",
"c 	c #8A939C",
"d 	c #7B838C",
"e 	c #3D513E",
"f 	c #697473",
"g 	c #8D97A1",
"h 	c #606A68",
"i 	c #2D5130",
"j 	c #274D29",
"k 	c #2C4F2E",
"l 	c #66716F",
"m 	c #8B959E",
"n 	c #677271",
"o 	c #3B4F3B",
"p 	c #828B93",
"q 	c #868E98",
"r 	c #4F5E54",
"s 	c #8A939D",
"t 	c #7B828C",
"u 	c #3D5140",
"v 	c #697474",
"w 	c #2E5130",
"x 	c #2C4E2E",
"y 	c #8C959E",
"z 	c #667271",
"A 	c #4E5E54",
"B 	c #3D513F",
"C 	c #2A4E2D",
"D 	c #616B68",
"E 	c #8A949E",
"F 	c #65706F",
"G 	c #384F39",
"H 	c #7E868E",
"I 	c #848D96",
"J 	c #4B5C51",
"K 	c #879099",
"L 	c #798089",
"M 	c #3C513E",
"N 	c #37503A",
"O 	c #55605B",
"P 	c #3E5542",
"Q 	c #2A4F2D",
"R 	c #47564B",
"S 	c #505D56",
"T 	c #335237",
"U 	c #305034",
"V 	c #4F5C55",
"W 	c #4A594E",
"X 	c #304F33",
"Y 	c #2A502D",
"Z 	c #38533C",
"` 	c #455B49",
" .	c #465B4A",
"..	c #445A48",
"+.	c #455A49",
"@.	c #39533B",
"#.	c #2E4F31",
"$.	c #687372",
"%.	c #8D96A0",
"&.	c #5F6A68",
"*.	c #294F2B",
"=.	c #445949",
"-.	c #757F83",
";.	c #818A92",
">.	c #818A91",
",.	c #818991",
"'.	c #6F797C",
").	c #516057",
"!.	c #757B83",
"~.	c #4C5A52",
"{.	c #4C5E51",
"].	c #7F878F",
"^.	c #8B96A0",
"/.	c #818992",
"(.	c #808990",
"_.	c #808890",
":.	c #8B959F",
"<.	c #727B80",
"[.	c #455849",
"}.	c #29502C",
"|.	c #284F2A",
"1.	c #415745",
"2.	c #8B95A0",
"3.	c #7A8189",
"4.	c #4A5B4F",
"5.	c #425846",
"6.	c #425746",
"7.	c #52615A",
"8.	c #7C858C",
"9.	c #89939D",
"0.	c #717A7E",
"a.	c #284F2B",
"b.	c #2B4E2D",
"c.	c #616C69",
"d.	c #8C96A0",
"e.	c #7A8188",
"f.	c #2A4F2C",
"g.	c #2C4F2F",
"h.	c #4B5A52",
"i.	c #838C95",
"j.	c #747C81",
"k.	c #3A523D",
"l.	c #2F5031",
"m.	c #4A5A51",
"n.	c #7E878E",
"o.	c #5C6764",
"p.	c #2F4F32",
"q.	c #6A7476",
"r.	c #6B7576",
"s.	c #4C5D51",
"t.	c #808A90",
"u.	c #5D6866",
"v.	c #66706F",
"w.	c #8C949E",
"x.	c #878F98",
"y.	c #8A949D",
"z.	c #747D83",
"A.	c #3B523E",
"B.	c #66716E",
"C.	c #4E6054",
"D.	c #7F888E",
"E.	c #727B7F",
"F.	c #445847",
"G.	c #65706E",
"H.	c #415846",
"I.	c #7D858B",
"J.	c #737C82",
"K.	c #2A522F",
"L.	c #8A949C",
"M.	c #7F8891",
"N.	c #3E5240",
"O.	c #7C828C",
"P.	c #365138",
"Q.	c #7C838C",
"R.	c #8B939C",
"S.	c #7B828B",
"T.	c #8C959F",
"U.	c #798087",
"V.	c #485B4D",
"W.	c #6C7477",
"X.	c #788089",
"Y.	c #355137",
"Z.	c #425647",
"`.	c #7C848C",
" +	c #788087",
".+	c #4B5D50",
"++	c #465B4B",
"@+	c #5E6867",
"#+	c #2C5030",
"$+	c #7C848B",
"%+	c #89939C",
"&+	c #868F99",
"*+	c #5F6B69",
"=+	c #355239",
"-+	c #435748",
";+	c #737C80",
">+	c #808991",
",+	c #55635E",
"'+	c #39533C",
")+	c #405645",
"!+	c #2F5032",
"~+	c #2A512D",
"{+	c #3A5E3C",
"]+	c #2C532E",
"^+	c #2E5431",
"/+	c #3D6040",
"(+	c #2E5531",
"_+	c #28502B",
":+	c #325735",
"<+	c #68826A",
"[+	c #627E65",
"}+	c #647F67",
"|+	c #8FA090",
"1+	c #6A836B",
"2+	c #537155",
"3+	c #547357",
"4+	c #607C62",
"5+	c #90A191",
"6+	c #758C76",
"7+	c #617C62",
"8+	c #6E876F",
"9+	c #688169",
"0+	c #3E6140",
"a+	c #8D9F8E",
"b+	c #A8B5A9",
"c+	c #91A292",
"d+	c #A5B2A6",
"e+	c #879987",
"f+	c #718872",
"g+	c #527054",
"h+	c #5E7A60",
"i+	c #8A9D8B",
"j+	c #8C9F8D",
"k+	c #A3B0A4",
"l+	c #B4BDB5",
"m+	c #92A293",
"n+	c #385D3B",
"o+	c #6F8670",
"p+	c #3B5E3D",
"q+	c #406243",
"r+	c #416344",
"s+	c #48684A",
"t+	c #2B522E",
"u+	c #2D5330",
"v+	c #4A6A4D",
"w+	c #6B846C",
"x+	c #355937",
"y+	c #2D5430",
"z+	c #2C532F",
"A+	c #29512D",
"B+	c #264E29",
"C+	c #264D29",
". + + + + + + + + + + + + + + + + + + + + + + + + + + + + + + + + + + + + + + + + + + + + + + @ ",
"+ # # # # # # # # # # # # # # # # # # # # # # # # # # # # # # # # # # # # # # # # # # # # # # $ ",
"+ # # # # # # # # # # # # # # # # # # # # # # # # # # # # # # # # # # # # # # # # # # # # # # $ ",
"+ # # # # # # # # # # # # # # # # % & * = - ; > , ; ' ) ! & ~ { # # # # # # # # # # # # # # # $ ",
"+ # # # # # # # # # # # # # # # = ] ^ / ( _ : < ; [ } | / 1 2 3 # # # # # # # # # # # # # # # $ ",
"+ # # # # # # # # # # # # # # # 4 5 6 7 8 9 0 a b c d e f g h i # # # # # # # # # # # # # # # j ",
"+ # # # # # # # # # # # # # # # k l m n o p q a r s t u v g h w # # # # # # # # # # # # # # # $ ",
"+ # # # # # # # # # # # # # # # x 5 y z 8 p q a A c t B v g h i # # # # # # # # # # # # # # # $ ",
"+ # # # # # # # # # # # # # # # C D E F G H I b J K L M f g h i # # # # # # # # # # # # # # # $ ",
"+ # # # # # # # # # # # # # # # # N O P Q R S T U V W X v g h i # # # # # # # # # # # # # # # $ ",
"+ # # # # # # # # # # # # # # # # # Y Q Z `  .....+.@.#.$.%.&.i # # # # # # # # # # # # # # # j ",
"+ # # # # # # # # # # # # # # # # # *.=.-.;.;.>.>.,.'.B ).!.~.Y # # # # # # # # # # # # # # # j ",
"+ # # # # # # # # # # # # # # # # *.{.].^./.(.(._.I :.<.[.~ }.# # # # # # # # # # # # # # # # $ ",
"+ # # # # # # # # # # # # # # # |.1.].2.3.4.5.5.6.7.8.9.0.6.a.# # # # # # # # # # # # # # # # $ ",
"+ # # # # # # # # # # # # # # # b.c.d.e.4.f.# # # g.h.i.s j.k.# # # # # # # # # # # # # # # # $ ",
"+ # # # # # # # # # # # # # # # x 5 m z l.# # # # # a.m.n.d.o.i # # # # # # # # # # # # # # # $ ",
"+ # # # # # # # # # # # # # # # 4 5 m z , # # # # # # p.q.g h i # # # # # # # # # # # # # # # $ ",
"+ # # # # # # # # # # # # # # # x 5 6 z , # # # # # # #.v g &.i # # # # # # # # # # # # # # # $ ",
"+ # # # # # # # # # # # # # # # x 5 m z , # # # # # # #.v g h i # # # # # # # # # # # # # # # j ",
"+ # # # # # # # # # # # # # # # x 5 m z , # # # # # # p.r.g &.i # # # # # # # # # # # # # # # $ ",
"+ # # # # # # # # # # # # # # # x 5 6 z , # # # # # a.s.t.d.u.i # # # # # # # # # # # # # # # $ ",
"+ # # # # # # # # # # # # # # # x v.w.7 , # # # # 3 s.x.y.z.A.a.# # # # # # # # # # # # # # # j ",
"+ # # # # # # # # # # # # # # # k B.m z , # # # 3 C.D.s E.F.a.# # # # # # # # # # # # # # # # $ ",
"+ # # # # # # # # # # # # # # # x G.m z , # # { H.I.:.J.F.Y # # # # # # # # # # # # # # # # # $ ",
"K.# # # # # # # # # # # # # # # x 5 y z l.# # # b L.M.N.a.# # # # # # # # # # # # # # # # # # $ ",
"+ # # # # # # # # # # # # # # # x B.m z , # # # b L.O.P.# # # # # # # # # # # # # # # # # # # $ ",
"+ # # # # # # # # # # # # # # # x 5 m z , # # # b c t P.# # # # # # # # # # # # # # # # # # # $ ",
"+ # # # # # # # # # # # # # # # 4 5 6 z , # # # A c t P.# # # # # # # # # # # # # # # # # # # $ ",
"+ # # # # # # # # # # # # # # # 4 5 m z , # # # A c d P.# # # # # # # # # # # # # # # # # # # $ ",
"+ # # # # # # # # # # # # # # # x 5 6 z , # # # A c Q.P.# # # # # # # # # # # # # # # # # # # $ ",
"K.# # # # # # # # # # # # # # # x B.m z l.# # # b R.d P.# # # # # # # # # # # # # # # # # # # $ ",
"+ # # # # # # # # # # # # # # # x 5 m z , # # # b c S.P.# # # # # # # # # # # # # # # # # # # $ ",
"+ # # # # # # # # # # # # # # # x 5 m z , # # # A c t P.# # # # # # # # # # # # # # # # # # # $ ",
"K.# # # # # # # # # # # # # # # b.c.T.U.V.= { % W.d.X.Y.# # # # # # # # # # # # # # # # # # # $ ",
"+ # # # # # # # # # # # # # # # a.Z.`.6  +.+++l 6 I @+#+# # # # # # # # # # # # # # # # # # # $ ",
"K.# # # # # # # # # # # # # # # # = J $+:.p ;.%+&+*+=+# # # # # # # # # # # # # # # # # # # # $ ",
"+ # # # # # # # # # # # # # # # # # = -+;+>+>+].,+U # # # # # # # # # # # # # # # # # # # # # $ ",
"+ # # # # # # # # # # # # # # # # # # Q '+H.H.)+!+# # # # # # # # # # # # # # # # # # # # # # j ",
"+ # # # # # # # # # # # # # # # # # # # # # # # # # # # # # # # # # # # # # # # # # # # # # # $ ",
"+ # # # # # # # # # # # # # # # # ~+a.}.{+]+# # ^+/+(+# _+_+# # # # # # # # # # # # # # # # # $ ",
"+ # # # # # # # # # # # # # # # :+<+[+}+|+1+2+3+4+5+6+7+8+9+# # # # # # # # # # # # # # # # # $ ",
"+ # # # # # # # # # # # # # # # 0+a+b+c+d+e+f+g+h+i+j+k+l+m+# # # # # # # # # # # # # # # # # $ ",
"K.# # # # # # # # # # # # # # # n+o+p+q+r+s+t+# u+v+w+n+p+x+# # # # # # # # # # # # # # # # # $ ",
"+ # # # # # # # # # # # # # # # _+y+# # # # # # # }.z+# # # # # # # # # # # # # # # # # # # # j ",
"+ # # # # # # # # # # # # # # # # # # # # # # # # # # # # # # # # # # # # # # # # # # # # # # $ ",
"+ # # # # # # # # # # # # # # # # # # # # # # # # # # # # # # # # # # # # # # # # # # # # # # $ ",
"+ # # # # # # # # # # # # # # # # # # # # # # # # # # # # # # # # # # # # # # # # # # # # # # $ ",
"A+B+B+B+B+B+B+B+B+B+B+B+B+B+B+B+B+B+B+B+B+B+B+B+B+B+B+B+B+B+B+B+B+B+B+B+B+B+B+B+B+B+B+B+B+B+B+C+"};
