/* XPM */
static char * pcb_fpw_16x16_xpm[] = {
"16 16 69 1",
" 	c None",
".	c #29512D",
"+	c #28502B",
"@	c #2A512E",
"#	c #2E5333",
"$	c #274F2A",
"%	c #38573C",
"&	c #506658",
"*	c #506659",
"=	c #274E29",
"-	c #3E5B43",
";	c #5E6E67",
">	c #616F6B",
",	c #64736F",
"'	c #415D47",
")	c #284F2B",
"!	c #315435",
"~	c #4F6557",
"{	c #5B6C64",
"]	c #5B6C65",
"^	c #5C6D66",
"/	c #3C5A42",
"(	c #38583D",
"_	c #5D6F67",
":	c #516759",
"<	c #566A60",
"[	c #5D6E67",
"}	c #36563B",
"|	c #284F2A",
"1	c #425D48",
"2	c #576C60",
"3	c #325536",
"4	c #35573B",
"5	c #596D64",
"6	c #3F5C45",
"7	c #435E48",
"8	c #546A5C",
"9	c #2E5332",
"0	c #345639",
"a	c #5B6E64",
"b	c #4F6757",
"c	c #5C6F66",
"d	c #335537",
"e	c #63726D",
"f	c #3C5B41",
"g	c #62716C",
"h	c #3B5A40",
"i	c #335638",
"j	c #63736E",
"k	c #3A5A40",
"l	c #5B6F65",
"m	c #546A5D",
"n	c #5B6E66",
"o	c #2C5230",
"p	c #425F48",
"q	c #4E6755",
"r	c #2D5330",
"s	c #3C603F",
"t	c #567359",
"u	c #4C6C4F",
"v	c #547257",
"w	c #527154",
"x	c #2E5430",
"y	c #325835",
"z	c #385C3A",
"A	c #385C3B",
"B	c #365B39",
"C	c #29512C",
"D	c #264E29",
".++++@####@+++++",
"+$$$$%&*&&%$$$$=",
"+$$$$-;>>,')$$$=",
"+$$$$!~{]^/$$$$=",
"+$$$$(_:<[}$$$$=",
"+$$$|123456|$$$=",
"+$$$|7890a6|$$$=",
"+$$$|789bcd$$$$=",
"+$$$|789ef$$$$$=",
"+$$$|789gh$$$$$=",
"+$$$|12ijk$$$$$=",
"+$$$$(lmnd$$$$$=",
"+$$$$opqfr)$$$$=",
"+$$$+stuvwx$$$$=",
"+$$$$yzyABC$$$$=",
"+DDDD$$$$$DDDDDD"};
