/* XPM */
static char * pcb_fpw_22x22_xpm[] = {
"22 22 115 2",
"  	c None",
". 	c #2A522E",
"+ 	c #28502C",
"@ 	c #29512D",
"# 	c #29502D",
"$ 	c #274F2A",
"% 	c #2D5130",
"& 	c #3D5A42",
"* 	c #3C5942",
"= 	c #3D5A43",
"- 	c #2D5131",
"; 	c #274E29",
"> 	c #3A583E",
", 	c #5F706A",
"' 	c #606F69",
") 	c #61706C",
"! 	c #61706B",
"~ 	c #606F6A",
"{ 	c #61716B",
"] 	c #39573D",
"^ 	c #284F2B",
"/ 	c #5F7069",
"( 	c #616F6A",
"_ 	c #63706E",
": 	c #62706C",
"< 	c #63716E",
"[ 	c #687774",
"} 	c #3C5940",
"| 	c #2E5232",
"1 	c #455E4B",
"2 	c #52665A",
"3 	c #5A6A63",
"4 	c #586961",
"5 	c #57685F",
"6 	c #63736E",
"7 	c #3A583F",
"8 	c #2B502E",
"9 	c #4C6454",
"0 	c #61716C",
"a 	c #60706A",
"b 	c #62716D",
"c 	c #54685D",
"d 	c #305234",
"e 	c #355539",
"f 	c #677773",
"g 	c #596D63",
"h 	c #425E48",
"i 	c #486250",
"j 	c #62726E",
"k 	c #5B6E65",
"l 	c #2F5232",
"m 	c #284F2A",
"n 	c #3C5941",
"o 	c #2A502D",
"p 	c #2C5130",
"q 	c #496251",
"r 	c #677774",
"s 	c #29512C",
"t 	c #667671",
"u 	c #3E5C43",
"v 	c #28502B",
"w 	c #415D47",
"x 	c #687874",
"y 	c #3B5840",
"z 	c #305334",
"A 	c #566B5F",
"B 	c #687773",
"C 	c #355438",
"D 	c #3D5A41",
"E 	c #4F6657",
"F 	c #6C7A79",
"G 	c #294F2C",
"H 	c #697674",
"I 	c #53695B",
"J 	c #667771",
"K 	c #697573",
"L 	c #506759",
"M 	c #687573",
"N 	c #2B512F",
"O 	c #6B7777",
"P 	c #506758",
"Q 	c #355639",
"R 	c #667672",
"S 	c #596D62",
"T 	c #486350",
"U 	c #717C7E",
"V 	c #47614E",
"W 	c #2A502E",
"X 	c #496351",
"Y 	c #5E7069",
"Z 	c #61726C",
"` 	c #52685C",
" .	c #335537",
"..	c #315635",
"+.	c #415F46",
"@.	c #44614A",
"#.	c #36583A",
"$.	c #2F5532",
"%.	c #2C532F",
"&.	c #3B5F3E",
"*.	c #5C785E",
"=.	c #617C64",
"-.	c #4C6C4F",
";.	c #5A775C",
">.	c #637E65",
",.	c #537255",
"'.	c #395D3C",
").	c #446646",
"!.	c #446546",
"~.	c #375B39",
"{.	c #436445",
"].	c #496A4B",
"^.	c #2A512C",
"/.	c #2A512D",
"(.	c #264E29",
". + + + + + + + @ # # # # @ + + + + + + + + ",
"+ $ $ $ $ $ $ % & * = & * = - $ $ $ $ $ $ ; ",
"+ $ $ $ $ $ $ > , ' ) ! ~ { ] ^ $ $ $ $ $ ; ",
"+ $ $ $ $ $ $ > / ( _ : < [ } ^ $ $ $ $ $ ; ",
"+ $ $ $ $ $ $ | 1 2 3 4 5 6 7 ^ $ $ $ $ $ ; ",
"+ $ $ $ $ $ $ 8 9 0 a b ) c d $ $ $ $ $ $ ; ",
"+ $ $ $ $ $ $ e f g h i j k l $ $ $ $ $ $ ; ",
"+ $ $ $ $ $ m n f h o p q r ] m $ $ $ $ $ ; ",
"s $ $ $ $ $ m & t u v v w x y ^ $ $ $ $ $ ; ",
"+ $ $ $ $ $ m & t u v z A B C m $ $ $ $ $ ; ",
"+ $ $ $ $ $ m D t u v E F 9 G $ $ $ $ $ $ ; ",
"+ $ $ $ $ $ m & t u v H I G $ $ $ $ $ $ $ ; ",
"+ $ $ $ $ $ m & J u v K L G $ $ $ $ $ $ $ ; ",
"+ $ $ $ $ $ m & t u v M L G $ $ $ $ $ $ $ ; ",
"+ $ $ $ $ $ m n f h N O P G $ $ $ $ $ $ $ ; ",
"+ $ $ $ $ $ $ Q R S T U V ^ $ $ $ $ $ $ $ ; ",
"+ $ $ $ $ $ $ W X Y Z `  .$ $ $ $ $ $ $ $ ; ",
"+ $ $ $ $ $ $ s ..+.@.#.$.%.$ $ $ $ $ $ $ ; ",
"+ $ $ $ $ $ v &.*.=.-.;.>.,.$ $ $ $ $ $ $ ; ",
"+ $ $ $ $ $ v '.).!.~.{.].&.$ $ $ $ $ $ $ ; ",
"s $ $ $ $ $ $ ^.s s v s /.v $ $ $ $ $ $ $ ; ",
"+ (.(.(.(.(.(.(.(.(.(.(.(.(.(.(.(.(.(.(.(.(."};
