/* XPM */
static char * gschem_place2_xpm[] = {
"24 24 177 2",
"  	c None",
". 	c #000000",
"+ 	c #C5C5C5",
"@ 	c #131313",
"# 	c #C9C9C9",
"$ 	c #0F0F0F",
"% 	c #A3A3A3",
"& 	c #C1C1C1",
"* 	c #111111",
"= 	c #C4C4C4",
"- 	c #191919",
"; 	c #A5A5A5",
"> 	c #C2C2C2",
", 	c #040404",
"' 	c #3C3C3C",
") 	c #5A5A5A",
"! 	c #D9D9D9",
"~ 	c #C6C6C6",
"{ 	c #CBCBCB",
"] 	c #C7C7C7",
"^ 	c #BFBFBF",
"/ 	c #C3C3C3",
"( 	c #BABABA",
"_ 	c #BCBCBC",
": 	c #ADADAD",
"< 	c #B5B5B5",
"[ 	c #ABABAB",
"} 	c #9B9B9B",
"| 	c #BDBDBD",
"1 	c #B1B1B1",
"2 	c #9C9C9C",
"3 	c #999999",
"4 	c #969696",
"5 	c #959595",
"6 	c #939393",
"7 	c #919191",
"8 	c #8F8F8F",
"9 	c #8D8D8D",
"0 	c #8B8B8B",
"a 	c #898989",
"b 	c #535353",
"c 	c #6C6C6B",
"d 	c #C0C0C0",
"e 	c #949494",
"f 	c #929292",
"g 	c #8E8E8E",
"h 	c #8C8C8C",
"i 	c #949393",
"j 	c #888888",
"k 	c #4C4C4C",
"l 	c #1C1B1B",
"m 	c #B9B9B9",
"n 	c #B4B3B3",
"o 	c #CBCACA",
"p 	c #B7B7B7",
"q 	c #B1B0B0",
"r 	c #AFAEAE",
"s 	c #CACACA",
"t 	c #B0AFAF",
"u 	c #A8A8A8",
"v 	c #D3D3D3",
"w 	c #DBD9D9",
"x 	c #919090",
"y 	c #50504F",
"z 	c #959594",
"A 	c #0B0B0B",
"B 	c #B4B4B4",
"C 	c #C4C3C3",
"D 	c #C6C5C5",
"E 	c #BBBABA",
"F 	c #BBB9B9",
"G 	c #A7A6A6",
"H 	c #979797",
"I 	c #878787",
"J 	c #454545",
"K 	c #010101",
"L 	c #BEBEBE",
"M 	c #ADACAC",
"N 	c #C1C0C0",
"O 	c #C8C7C7",
"P 	c #C5C4C4",
"Q 	c #868686",
"R 	c #A4A3A3",
"S 	c #898888",
"T 	c #484848",
"U 	c #979695",
"V 	c #A7A7A7",
"W 	c #848484",
"X 	c #828282",
"Y 	c #808080",
"Z 	c #7E7E7E",
"` 	c #7C7C7C",
" .	c #464646",
"..	c #151414",
"+.	c #838383",
"@.	c #858585",
"#.	c #7D7D7D",
"$.	c #7B7B7B",
"%.	c #797979",
"&.	c #414141",
"*.	c #B0B0AF",
"=.	c #777777",
"-.	c #464545",
";.	c #171716",
">.	c #9D9D9D",
",.	c #9C9B9B",
"'.	c #A5A4A4",
").	c #A1A1A1",
"!.	c #ABAAAA",
"~.	c #979696",
"{.	c #8F8E8E",
"].	c #787878",
"^.	c #747474",
"/.	c #3D3D3D",
"(.	c #8C8B8B",
"_.	c #8D8C8C",
":.	c #B8B39B",
"<.	c #424242",
"[.	c #030303",
"}.	c #7A7A7A",
"|.	c #999898",
"1.	c #757575",
"2.	c #EBE8D3",
"3.	c #3B3B3B",
"4.	c #999897",
"5.	c #B2B2B2",
"6.	c #767676",
"7.	c #A3A2A2",
"8.	c #A09F9F",
"9.	c #A0A0A0",
"0.	c #A1A0A0",
"a.	c #989797",
"b.	c #717171",
"c.	c #FEFEED",
"d.	c #969595",
"e.	c #888787",
"f.	c #858484",
"g.	c #9A9999",
"h.	c #675E46",
"i.	c #F4E7C2",
"j.	c #FEFCE8",
"k.	c #A27E36",
"l.	c #645435",
"m.	c #6B6B6B",
"n.	c #838282",
"o.	c #878686",
"p.	c #9A8558",
"q.	c #C7AF7A",
"r.	c #D9C28B",
"s.	c #DFCA96",
"t.	c #F3E5BE",
"u.	c #CCB176",
"v.	c #E1CC99",
"w.	c #DEC58D",
"x.	c #9F8B5F",
"y.	c #B8B8B8",
"z.	c #666666",
"A.	c #636363",
"B.	c #626262",
"C.	c #442D0E",
"D.	c #7D5A22",
"E.	c #BAA069",
"F.	c #88601F",
"G.	c #5E4417",
"H.	c #3A3A3A",
"I.	c #383838",
"J.	c #3F3F3F",
"K.	c #404040",
"L.	c #D6C08E",
"M.	c #D8C291",
"N.	c #020202",
"O.	c #9E9E9E",
"P.	c #7F7F7F",
"Q.	c #989898",
"R.	c #818181",
"S.	c #080808",
"T.	c #A09069",
"      . . . . . . . . . . . . . . . . .         ",
"      . + @ # $ % . & * = - ; . ; . > ,         ",
"    ' ' ) . ) . ) . ) . ) . ) . ) . ) ' '       ",
". . ' ! ~ { ~ > ] ^ { / # > ( _ : < [ } ' . .   ",
". | ) 1 2 3 3 3 3 3 3 4 5 6 7 8 9 0 a b ) c .   ",
". . . d 5 6 5 6 5 e 5 4 f g h e 5 i j k . l .   ",
". # ) m f n o p q ^ r s t 9 0 u v w x y ) z .   ",
". A . B 8 ( C D E o F d G p j H I v 9 J . K .   ",
". | ) d h L 4 D M N r O P : Q D 6 R S T ) U .   ",
". $ . V a I I I I I I Q j Q W X Y Z `  .. ...   ",
". # ) > Q W W +.+.+.W X @.W X Y #.$.%.&.) *..   ",
". A . V +.+.@.j W Q Q Q I 0 Y #.$.%.=.-.. ;..   ",
". >.) B Y 5 ,.'.).3 !.6 ~.R {.$.].. ^./.) z .   ",
". . . : #.a g f {.(.5 j _.{.@.].. :.. <.. [..   ",
". L ) ; }.{.j x ~.9 5 |.{.].=.1.. 2.. 3.) 4..   ",
". * . 5.6.7.{.,.8.H 9.0.a.1.b.. . c.. . . . .   ",
". ] ) 3 b.d.8.e.S f.g.~.i . . h.i.j.k.l.. . .   ",
". * . 1 m.n.o.=.b.$.0 e.. p.q.r.s.t.u.v.w.x..   ",
". y.) H z.A.A.A.A.A.A.A.B.. . C.D.E.F.G.. . .   ",
". . ' 7 J H.<.I./.' H.J.I.K.I.. . L.. . . . .   ",
"    ' ' ) . ) . ) . ) . ) . ) . . M.. . '       ",
"      . % . H N.O.. P.. Q., R.S.. T.. .         ",
"      . . . . . . . . . . . . . . . . .         ",
"                                                "};
